# xmcd CD database file generated by Grip 3.3.1
# 
# Track frame offsets:
#       150
#       13925
#       29032
#       46700
#       65902
#       80880
#       103475
#       118752
#       137797
#       152887
#       174515
#       190147
#       207920
#       223582
#       241700
#       257650
#       273782
#       294162
#       311527
#       327692
# 
# Disc length: 4660 seconds
# 
# Revision: 1
# Processed by: cddbd v1.5.1PL2 Copyright (c) Steve Scherf et al.
# Submitted via: Grip 3.3.1
# 
DISCID=34123214
DTITLE=John Lennon - Legend
DYEAR=1900
DGENRE=Rock
TTITLE0=Imagine
TTITLE1=Instant Karma!
TTITLE2=Mother
TTITLE3=Jealous Guy
TTITLE4=Power to the People
TTITLE5=Cold Turkey
TTITLE6=Love
TTITLE7=Mind Games
TTITLE8=Whatever gets you through the Night
TTITLE9=Dream
TTITLE10=Stand By Me
TTITLE11=Just like starting over
TTITLE12=Woman
TTITLE13=Beautiful Boy
TTITLE14=Watching the Wheels
TTITLE15=Nobody told me
TTITLE16=Borrowed Time
TTITLE17=Working Class Hero
TTITLE18=Happy Xmas
TTITLE19=Give Peace a chance
EXTD=
EXTT0=
EXTT1=
EXTT2=
EXTT3=
EXTT4=
EXTT5=
EXTT6=
EXTT7=
EXTT8=
EXTT9=
EXTT10=
EXTT11=
EXTT12=
EXTT13=
EXTT14=
EXTT15=
EXTT16=
EXTT17=
EXTT18=
EXTT19=
PLAYORDER=
